<?xml version="1.0" encoding="utf-8"?>
<!-- Generator: Adobe Illustrator 18.0.0, SVG Export Plug-In . SVG Version: 6.00 Build 0)  -->
<!DOCTYPE svg PUBLIC "-//W3C//DTD SVG 1.1//EN" "http://www.w3.org/Graphics/SVG/1.1/DTD/svg11.dtd">
<svg version="1.1" id="logo" xmlns="http://www.w3.org/2000/svg" xmlns:xlink="http://www.w3.org/1999/xlink" x="0px" y="0px"
	 viewBox="0 91.9 288 103.7" enable-background="new 0 91.9 288 103.7" xml:space="preserve">
<g>
	<path fill="#FFFFFF" d="M156.8,160c-0.1-1-0.1-2.3-0.1-3.8v-11.7c0-7.5-2.4-12-7.3-13.7c-1.3-0.4-2.7-0.9-4.5-1.2l0,0
		c1.4-0.4,2.7-0.8,3.7-1.2c3.6-1.4,5.9-4.2,7-8.4c0.6-2.4,0.9-5,0.9-7.8c-0.1-7.2-2-12.2-5.8-15.1c-3-2.3-8.4-3.5-16.1-3.5h-19.9
		v70.6h14.4v-28.8h4.3c1.2,0,2.4,0.1,3.5,0.4c3.6,0.7,5.4,3.7,5.4,8.9v11.7c0,1.2,0.1,2.7,0.4,4.4l0.6,3.5h14.5
		C157.2,162.4,157,161,156.8,160z M140.1,122.5c-1.4,1.4-3.7,2.1-6.8,2.1H129v-20.5h4.2c1.2,0,2.2,0.1,3.2,0.2
		c2.9,0.4,4.6,2.2,5.3,5.3c0.3,1.5,0.4,3,0.4,4.7C142.1,118.5,141.5,121.2,140.1,122.5z"/>
</g>
<rect x="165" y="93.4" fill="#FFFFFF" width="14.4" height="70.8"/>
<path fill="#FFFFFF" d="M202.6,141.8v2.6c-0.1,6.7,2.4,10.1,7.8,10.1c4.3,0,7-1.8,7.8-5.6c0.3-1,0.4-2.1,0.4-3.2c0-1.6-0.3-3-0.9-4
	c-0.6-0.9-1.4-1.8-2.4-2.7l-2.2-1.4l-12.2-7.1c-2.2-1.3-4.2-2.7-5.9-4.1c-2.1-1.7-3.5-3.5-4.4-5.5c-1-2.4-1.6-5.2-1.6-8.6
	c0-13.2,7.3-19.9,22.1-19.9c12,0,18.8,4.2,20.3,12.7c0.4,2.2,0.6,4.6,0.6,7.1v3h-14.4v-2.4c0-1.5-0.1-3-0.3-4.3
	c-0.4-3.6-2.7-5.4-6.7-5.4c-4.7-0.1-7.1,2.4-7.3,7.6c0,1.9,0.3,3.3,1,4.4c0.6,1,1.8,2.1,3.5,3.2l3,1.9l12,7.1c1.6,1,3,2,4.4,3.2
	c1.9,1.7,3.3,3.5,4,5.3c0.9,2.4,1.4,5.3,1.4,8.7c0,10.3-4,16.6-12,19c-3.4,1.1-7.1,1.6-11,1.6c-3.8,0-7.3-0.4-10.6-1.4
	c-6.2-1.7-9.7-5.8-10.7-12c-0.4-2.2-0.6-4.7-0.6-7.4v-2.4H202.6z"/>
<polygon fill="#FFFFFF" points="278.9,93.4 278.9,104.1 257.9,104.1 257.9,122.4 278.1,122.4 278.1,133.1 257.9,133.1 257.9,153.4 
	279.5,153.4 279.5,164.2 243.5,164.2 243.5,93.4 "/>
<polygon fill="#01C965" points="114.6,173.3 119.5,173.3 123,189.6 123,189.6 126.9,173.3 131.5,173.3 125.6,195.6 120.2,195.6 "/>
<rect x="150.2" y="173.3" fill="#01C965" width="4.7" height="22.3"/>
<path fill="#01C965" d="M180.1,196c-5.8,0-6.8-3.4-6.6-7.3h4.7c0,2.2,0.1,4,2.7,4c1.6,0,2.4-1,2.4-2.5c0-4-9.4-4.2-9.4-10.9
	c0-3.5,1.7-6.3,7.3-6.3c4.5,0,6.8,2,6.5,6.7H183c0-1.7-0.3-3.4-2.2-3.4c-1.5,0-2.4,0.9-2.4,2.4c0,4.2,9.4,3.9,9.4,10.9
	C187.8,195.3,183.6,196,180.1,196z"/>
<rect x="206.4" y="173.3" fill="#01C965" width="4.7" height="22.3"/>
<g>
	<path fill="#01C965" d="M236.8,172.9c-7.7,0-7.7,5.6-7.7,11.5c0,5.8,0,11.5,7.7,11.5s7.7-5.7,7.7-11.5
		C244.6,178.6,244.6,172.9,236.8,172.9z M236.8,192.7c-2.7,0-3-2.4-3-8.2c0-5.8,0.4-8.2,3-8.2c2.7,0,3,2.4,3,8.2
		C239.8,190.2,239.5,192.7,236.8,192.7z"/>
</g>
<polygon fill="#01C965" points="262.8,195.6 262.8,173.3 269.1,173.3 275,188.8 275.1,188.8 275.1,173.3 279.5,173.3 279.5,195.6 
	273.3,195.6 267.2,179.3 267.2,179.3 267.2,195.6 "/>
<g>
	<path fill="#01C965" d="M4,195.6h76.1l0.1-27.6h27.4l-27.6,27.6h27.6V91.9L4,195.6z M53.7,191.5v-19.7h18.5L53.7,191.5z
		 M83.9,160.8v-19.7h18.5L83.9,160.8z"/>
</g>
</svg>
